<svg width="203" height="36" viewBox="0 0 203 36" fill="none" xmlns="http://www.w3.org/2000/svg">
<path d="M22.2714 25.7984C22.2714 27.8583 21.7764 29.6566 20.7867 31.1935C19.7966 32.7304 18.3597 33.9236 16.4761 34.7738C14.6239 35.5912 12.357 36 9.6749 36C8.49322 36 7.32802 35.9184 6.17853 35.7548C5.06084 35.5912 3.97533 35.3624 2.92163 35.0681C1.89974 34.7413 0.925731 34.3489 0 33.891V26.9755C1.62845 27.6947 3.30479 28.3653 5.02903 28.9864C6.78507 29.5749 8.52541 29.8692 10.2496 29.8692C11.4309 29.8692 12.3728 29.7056 13.0755 29.3788C13.8096 29.0519 14.3365 28.6105 14.656 28.0545C15.007 27.4985 15.1829 26.8609 15.1829 26.1417C15.1829 25.2589 14.8794 24.5067 14.2729 23.8856C13.6981 23.2645 12.9157 22.692 11.926 22.169C10.9359 21.613 9.8025 21.0244 8.52541 20.4033C7.7269 20.0109 6.86478 19.553 5.93905 19.03C5.01294 18.474 4.11902 17.8039 3.2569 17.0191C2.42659 16.2018 1.73996 15.2209 1.19739 14.0763C0.654452 12.9319 0.383165 11.5586 0.383165 9.95638C0.383165 7.86376 0.846032 6.08173 1.77214 4.61034C2.73005 3.10627 4.07112 1.96185 5.79536 1.17711C7.5514 0.392369 9.61091 0 11.9739 0C13.7617 0 15.4542 0.212547 17.0508 0.637601C18.6793 1.06269 20.3713 1.66757 22.1277 2.45231L19.7809 8.23976C18.216 7.58584 16.8113 7.07901 15.566 6.71937C14.3208 6.35968 13.0433 6.17982 11.7344 6.17982C10.8401 6.17982 10.0738 6.32696 9.43542 6.62124C8.79669 6.91552 8.30164 7.32425 7.95066 7.84743C7.6311 8.37058 7.4717 8.99182 7.4717 9.71115C7.4717 10.5286 7.71118 11.2316 8.19013 11.8202C8.66909 12.376 9.38753 12.9155 10.3454 13.4387C11.3033 13.9618 12.5007 14.5833 13.9376 15.3025C15.6936 16.1528 17.1784 17.0356 18.3919 17.951C19.6372 18.8664 20.5951 19.9454 21.2656 21.188C21.9361 22.4307 22.2714 23.9672 22.2714 25.7984ZM57.6557 8.23976C60.6253 8.23976 62.8602 9.0245 64.3611 10.594C65.8938 12.1308 66.6601 14.6158 66.6601 18.0491V35.5095H59.5237V19.8638C59.5237 17.9345 59.2041 16.4961 58.5658 15.5477C57.927 14.5668 56.9373 14.0763 55.5962 14.0763C53.7122 14.0763 52.3711 14.763 51.573 16.1363C50.7745 17.5096 50.3756 19.4879 50.3756 22.0709V35.5095H43.2392V19.8638C43.2392 18.5886 43.0955 17.5261 42.8081 16.6758C42.5207 15.8255 42.0897 15.1879 41.5149 14.763C40.9402 14.3051 40.2057 14.0763 39.3117 14.0763C38.0025 14.0763 36.9649 14.4197 36.1985 15.1063C35.4322 15.793 34.8893 16.7904 34.5701 18.0981C34.2505 19.4059 34.0911 21.0083 34.0911 22.9047V35.5095H26.9547V8.73026H32.4148L33.3727 12.1635H33.7559C34.2984 11.2479 34.969 10.5123 35.7675 9.95638C36.5656 9.36783 37.4438 8.94277 38.4017 8.68118C39.3915 8.3869 40.3812 8.23976 41.3713 8.23976C43.2871 8.23976 44.9155 8.56676 46.2566 9.22073C47.5977 9.84197 48.6192 10.8229 49.3219 12.1635H49.9446C50.7427 10.7902 51.8443 9.79292 53.2493 9.17168C54.6862 8.5504 56.1549 8.23976 57.6557 8.23976ZM83.779 8.19072C87.2911 8.19072 89.9732 8.97546 91.8254 10.545C93.7091 12.0817 94.6513 14.4522 94.6513 17.6567V35.5095H89.6701L88.2812 31.8801H88.0896C87.3551 32.8285 86.5887 33.6132 85.7906 34.2343C85.0243 34.8555 84.13 35.2969 83.1085 35.5586C82.1184 35.8529 80.8892 36 79.4205 36C77.8878 36 76.4989 35.7057 75.2536 35.1172C74.0401 34.496 73.0822 33.5642 72.3799 32.3215C71.6771 31.0463 71.3262 29.4443 71.3262 27.515C71.3262 24.6703 72.2998 22.5778 74.2478 21.2371C76.1954 19.8638 79.117 19.1116 83.0127 18.981L87.5627 18.8338V17.6567C87.5627 16.2509 87.1953 15.2209 86.4611 14.5668C85.7584 13.9128 84.7687 13.5858 83.4916 13.5858C82.2142 13.5858 80.9689 13.782 79.7558 14.1744C78.5423 14.5342 77.3288 14.9917 76.1157 15.5477L73.7688 10.594C75.1735 9.84196 76.7223 9.25341 78.4147 8.82832C80.1389 8.40326 81.9268 8.19072 83.779 8.19072ZM84.7848 23.1989C82.4858 23.2645 80.8892 23.6894 79.9952 24.4741C79.101 25.2589 78.6542 26.2888 78.6542 27.564C78.6542 28.6756 78.9734 29.4769 79.6121 29.9673C80.2504 30.4252 81.0807 30.654 82.1026 30.654C83.6353 30.654 84.9285 30.1961 85.9822 29.2807C87.0359 28.3323 87.5627 27.0081 87.5627 25.3079V23.1008L84.7848 23.1989ZM115.606 8.23976C115.957 8.23976 116.373 8.25612 116.852 8.28885C117.331 8.32153 117.714 8.37058 118.001 8.43595L117.474 15.3025C117.25 15.237 116.915 15.1879 116.468 15.1554C116.053 15.0898 115.686 15.0573 115.367 15.0573C114.441 15.0573 113.547 15.1879 112.685 15.4496C111.823 15.6784 111.04 16.0547 110.338 16.5777C109.667 17.1007 109.124 17.8039 108.709 18.6867C108.326 19.5369 108.135 20.5995 108.135 21.8747V35.5095H100.998V8.73026H106.41L107.464 13.2425H107.799C108.31 12.327 108.949 11.4932 109.715 10.7412C110.481 9.9891 111.359 9.38419 112.349 8.92641C113.371 8.46867 114.457 8.23976 115.606 8.23976ZM132.806 30.1635C133.604 30.1635 134.37 30.0819 135.105 29.9183C135.839 29.7547 136.573 29.5585 137.308 29.3297V34.7738C136.542 35.1007 135.584 35.3789 134.434 35.6076C133.316 35.8693 132.087 36 130.746 36C129.181 36 127.777 35.7383 126.531 35.2153C125.318 34.6922 124.344 33.7929 123.61 32.5177C122.907 31.2099 122.556 29.4113 122.556 27.1226V14.2235H119.155V11.1335L123.083 8.68118L125.142 3.04086H129.692V8.73026H137.02V14.2235H129.692V27.1226C129.692 28.1361 129.98 28.9048 130.555 29.4278C131.129 29.9183 131.88 30.1635 132.806 30.1635ZM173.821 25.7984C173.821 27.8583 173.326 29.6566 172.337 31.1935C171.347 32.7304 169.91 33.9236 168.026 34.7738C166.174 35.5912 163.907 36 161.225 36C160.043 36 158.878 35.9184 157.729 35.7548C156.611 35.5912 155.525 35.3624 154.472 35.0681C153.45 34.7413 152.476 34.3489 151.55 33.891V26.9755C153.178 27.6947 154.855 28.3653 156.579 28.9864C158.335 29.5749 160.075 29.8692 161.8 29.8692C162.981 29.8692 163.923 29.7056 164.626 29.3788C165.36 29.0519 165.887 28.6105 166.206 28.0545C166.557 27.4985 166.733 26.8609 166.733 26.1417C166.733 25.2589 166.429 24.5067 165.823 23.8856C165.248 23.2645 164.466 22.692 163.476 22.169C162.486 21.613 161.353 21.0244 160.075 20.4033C159.277 20.0109 158.415 19.553 157.489 19.03C156.563 18.474 155.669 17.8039 154.807 17.0191C153.977 16.2018 153.29 15.2209 152.747 14.0763C152.204 12.9319 151.933 11.5586 151.933 9.95638C151.933 7.86376 152.396 6.08173 153.322 4.61034C154.28 3.10627 155.621 1.96185 157.345 1.17711C159.101 0.392369 161.161 0 163.524 0C165.312 0 167.004 0.212547 168.601 0.637601C170.229 1.06269 171.921 1.66757 173.678 2.45231L171.331 8.23976C169.766 7.58584 168.361 7.07901 167.116 6.71937C165.871 6.35968 164.593 6.17982 163.284 6.17982C162.39 6.17982 161.624 6.32696 160.985 6.62124C160.347 6.91552 159.852 7.32425 159.501 7.84743C159.181 8.37058 159.022 8.99182 159.022 9.71115C159.022 10.5286 159.261 11.2316 159.74 11.8202C160.219 12.376 160.938 12.9155 161.895 13.4387C162.853 13.9618 164.051 14.5833 165.488 15.3025C167.244 16.1528 168.728 17.0356 169.942 17.951C171.187 18.8664 172.145 19.9454 172.816 21.188C173.486 22.4307 173.821 23.9672 173.821 25.7984ZM202.5 8.73026V35.5095H197.04L196.082 32.0763H195.699C195.156 32.9917 194.454 33.7439 193.591 34.3324C192.762 34.8884 191.835 35.2969 190.813 35.5586C189.792 35.8529 188.738 36 187.652 36C185.801 36 184.172 35.6567 182.767 34.97C181.362 34.2834 180.277 33.2208 179.51 31.782C178.744 30.3432 178.361 28.4795 178.361 26.1908V8.73026H185.497V24.376C185.497 26.2724 185.832 27.7112 186.503 28.6921C187.173 29.673 188.243 30.1635 189.712 30.1635C191.181 30.1635 192.314 29.8202 193.113 29.1335C193.943 28.4469 194.518 27.4495 194.837 26.1417C195.188 24.8339 195.364 23.2315 195.364 21.3352V8.73026H202.5Z" fill="#016CBA"/>
</svg>
