<svg width="360" height="418" viewBox="0 0 360 418" fill="none" xmlns="http://www.w3.org/2000/svg">
<path d="M398.284 -97.9167C340.365 -81.8654 296.446 -82.2998 266.841 -85.7652C236.905 -89.2701 214.054 -96.7809 177.142 -91.7814C136.413 -86.3309 112.272 -73.2171 102.891 -67.3815C89.886 -59.2855 91.2768 -57.5358 70.5395 -42.2149C30.7047 -12.7825 20.9161 -15.7806 3.81899 0.312643C-24.5297 26.9923 -9.09632 46.0278 -36.299 83.4068C-55.9964 110.482 -92.6397 139.721 -131.747 143.124C-168.574 146.326 -178.559 124.095 -215.611 134.017C-230.83 138.092 -242.4 145.69 -265.53 160.882C-295.185 180.312 -313.964 197.744 -321.608 204.252C-344.246 223.547 -383.341 244.807 -454.946 249.386" stroke="#016CBA" stroke-opacity="0.5" stroke-miterlimit="10"/>
<path d="M400.824 -90.192C344.9 -74.207 300.33 -72.9085 268.192 -76.0317C242.045 -78.721 221.134 -84.5101 194.43 -84.3375C188.591 -84.2938 182.481 -84.0845 176.005 -83.4642C135.197 -79.543 110.568 -68.6992 100.372 -63.8485C86.6957 -57.3513 87.0972 -55.8028 66.7618 -40.8353C52.4274 -30.2958 42.0415 -23.4704 33.9122 -18.5103C20.0919 -10.0835 12.8291 -7.19366 2.82697 2.93967C-0.909839 6.7026 -4.25434 10.8593 -7.14041 15.3275C-20.4911 35.9856 -15.0303 53.971 -38.3542 83.7039C-58.6563 109.586 -95.4713 137.022 -133.964 140.219C-137.014 140.47 -140.06 140.562 -143.09 140.495C-173.669 139.801 -184.861 122.973 -217.453 131.628C-220.889 132.535 -224.284 133.674 -227.615 135.037C-238.82 139.581 -249.775 146.701 -267.097 158.078C-295.782 176.972 -314.272 194.121 -322.695 201.313C-328.871 206.555 -335.413 211.292 -342.254 215.472C-365.906 230.007 -401.161 243.534 -454.506 248.105" stroke="#016CBA" stroke-opacity="0.5" stroke-miterlimit="10"/>
<path d="M403.534 -81.7782C349.618 -65.8702 304.391 -62.6948 269.711 -65.6524C242.172 -67.9943 220.251 -74.1592 193.864 -74.6294C187.838 -74.746 181.607 -74.8159 175.039 -74.4284C134.15 -72.0471 108.852 -64.3091 98.007 -59.6146C84.0374 -53.5475 83.0502 -53.3678 63.1485 -38.7772C49.2172 -28.5494 38.9795 -21.3355 31.1214 -16.024C17.8761 -7.09813 11.2372 -3.84722 2.04367 6.25177C-1.45295 10.125 -4.59564 14.3186 -7.33685 18.7692C-20.1175 39.1511 -16.4595 56.6511 -40.2534 84.6931C-61.1684 109.36 -98.1602 134.981 -136.035 137.978C-139.25 138.2 -142.24 138.338 -145.102 138.239C-176.63 137.625 -187.722 121.67 -219.13 129.982C-222.543 130.869 -225.916 131.986 -229.227 133.323C-240.641 137.872 -251.598 144.91 -268.48 156.084C-296.214 174.41 -314.391 191.292 -323.624 199.084C-329.75 204.286 -336.224 209.007 -342.985 213.2C-366.381 227.78 -401.323 241.836 -453.854 247.531" stroke="#016CBA" stroke-opacity="0.5" stroke-miterlimit="10"/>
<path d="M406.361 -72.8167C354.469 -56.9394 308.591 -51.9917 271.38 -54.6444C242.471 -56.7134 219.529 -63.1942 193.476 -64.316C187.257 -64.5889 180.898 -64.9256 174.254 -64.7851C133.291 -63.9217 107.819 -57.5684 95.8185 -54.7901C80.9746 -51.3455 79.1744 -50.3524 59.6968 -36.1385C46.1462 -26.2356 36.0598 -18.6235 28.4306 -12.9435C15.7682 -3.52809 9.7421 0.110746 1.35461 10.1653C-1.86932 14.141 -4.78806 18.3623 -7.37063 22.7845C-19.5869 42.8737 -17.7947 59.8813 -41.9994 86.1814C-63.5685 109.632 -100.705 133.422 -137.957 136.222C-141.148 136.431 -144.122 136.561 -146.961 136.479C-179.428 135.902 -190.428 120.882 -220.655 128.763C-224.047 129.632 -227.4 130.726 -230.694 132.04C-242.319 136.586 -253.308 143.571 -269.736 154.487C-296.502 172.227 -314.388 188.836 -324.406 197.295C-330.499 202.444 -336.914 207.148 -343.598 211.366C-366.736 225.989 -401.36 240.59 -453.058 247.416" stroke="#016CBA" stroke-opacity="0.5" stroke-miterlimit="10"/>
<path d="M409.192 -63.8431C359.314 -48.0034 312.815 -41.2611 273.063 -43.6103C242.776 -45.4076 218.821 -52.2129 193.093 -53.9589C186.688 -54.391 180.207 -55.0062 173.473 -55.0976C132.444 -55.7239 106.632 -51.6085 93.6361 -49.9113C78.2811 -47.9086 75.3358 -47.3028 56.2472 -33.4547C43.049 -23.8391 33.1596 -15.8733 25.7703 -9.85623C13.6897 0.0416218 8.29097 4.08491 0.698458 14.0888C-2.24736 18.1585 -4.94427 22.405 -7.37417 26.7998C-19.0413 46.5775 -19.1183 63.0905 -43.7338 87.6936C-65.9634 109.91 -103.237 131.867 -139.869 134.488C-143.026 134.682 -145.984 134.803 -148.812 134.733C-182.221 134.21 -193.084 120.216 -222.149 127.62C-225.518 128.484 -228.851 129.557 -232.129 130.834C-243.945 135.38 -254.918 142.284 -270.961 152.967C-296.773 170.143 -314.358 186.482 -325.167 195.58C-331.217 200.688 -337.57 205.377 -344.179 209.611C-367.065 224.29 -401.374 239.42 -452.237 247.411" stroke="#016CBA" stroke-opacity="0.5" stroke-miterlimit="10"/>
<path d="M410.963 -58.4083C363.119 -42.5759 316.02 -33.9758 273.774 -35.9577C242.141 -37.4441 217.189 -44.5412 191.818 -46.8324C185.24 -47.4246 178.635 -48.2654 171.819 -48.6077C130.777 -50.666 104.624 -48.708 90.6603 -48.1512C74.8113 -47.5085 70.6524 -47.3382 52.0122 -33.8801C41.7215 -26.4359 31.8084 -18.407 22.3242 -9.83507C10.7932 0.536037 6.04257 4.99159 -0.748078 14.8745C-3.7101 19.2028 -5.85097 23.4416 -8.25719 27.6816C-19.4024 47.074 -21.3643 63.1095 -46.3902 85.929C-69.3214 106.882 -106.711 127.002 -142.689 129.488C-145.819 129.675 -148.758 129.792 -151.563 129.735C-185.888 129.348 -196.624 116.288 -224.481 123.36C-227.823 124.214 -231.132 125.27 -234.389 126.522C-246.405 131.096 -257.386 137.896 -272.991 148.292C-297.85 164.865 -315.146 180.934 -326.741 190.658C-332.757 195.721 -339.057 200.39 -345.597 204.636C-368.225 219.36 -402.197 235.043 -452.198 244.235" stroke="#016CBA" stroke-opacity="0.5" stroke-miterlimit="10"/>
<path d="M412.221 -54.8356C366.422 -39.0228 318.731 -28.5583 274.006 -30.1163C241.043 -31.2662 215.121 -38.6486 190.118 -41.3955C183.36 -42.1469 176.65 -43.2216 169.75 -43.7876C128.679 -47.1986 102.195 -47.3609 87.2751 -47.9492C70.9787 -48.6156 65.6072 -48.9205 47.3774 -35.8525C37.163 -28.5297 27.4913 -20.3723 18.4673 -11.4688C7.51226 -0.663302 3.37696 4.22897 -2.61548 14.0575C-5.28072 18.402 -7.15774 22.6775 -9.53265 26.9348C-20.1544 45.9973 -24.0595 61.3793 -49.4542 82.5005C-73.11 102.174 -110.598 120.479 -145.911 122.843C-149.004 123.021 -151.915 123.132 -154.713 123.097C-189.932 122.898 -200.551 110.829 -227.155 117.581C-230.474 118.421 -233.761 119.459 -236.998 120.689C-249.2 125.27 -260.202 131.989 -275.362 142.159C-299.263 158.152 -316.272 173.913 -328.668 184.282C-334.648 189.289 -340.888 193.935 -347.352 198.194C-369.73 212.962 -403.374 229.201 -452.504 239.601" stroke="#016CBA" stroke-opacity="0.5" stroke-miterlimit="10"/>
<path d="M413.464 -51.1937C369.715 -35.3724 321.436 -23.0944 274.217 -24.2202C239.931 -25.0453 213.044 -32.7316 188.396 -35.9868C181.453 -36.9139 174.622 -38.215 167.653 -38.9896C126.577 -43.7378 99.7573 -45.9686 83.8961 -47.7645C67.0696 -49.6632 60.5686 -50.4954 42.7584 -37.8193C32.6139 -30.565 23.1819 -22.2305 14.639 -12.972C4.27109 -1.75919 0.749544 3.60399 -4.46981 13.3192C-6.81038 17.6785 -8.44793 21.9704 -10.776 26.2681C-20.898 44.9449 -26.7485 59.7627 -52.4937 79.1728C-76.8822 97.5621 -114.436 114.061 -149.054 116.307C-152.119 116.48 -155.011 116.589 -157.787 116.56C-193.916 116.487 -204.352 105.404 -229.797 111.774C-233.089 112.607 -236.351 113.625 -239.568 114.824C-251.984 119.376 -262.977 126.052 -277.698 135.978C-300.654 151.368 -317.36 166.846 -330.564 177.833C-336.505 182.796 -342.688 187.427 -349.08 191.7C-371.21 206.474 -404.526 223.265 -452.773 234.894" stroke="#016CBA" stroke-opacity="0.5" stroke-miterlimit="10"/>
<path d="M414.717 -47.5372C373.002 -31.7279 324.127 -17.6253 274.432 -18.3243C238.814 -18.8224 210.962 -26.8203 186.673 -30.5291C179.57 -31.6116 172.616 -33.1092 165.568 -34.1643C124.48 -40.2435 97.3131 -44.5274 80.523 -47.5269C63.1893 -50.6494 55.5482 -52.0181 38.1498 -39.7295C28.078 -32.5476 18.8774 -24.0623 10.8059 -14.5114C0.95659 -2.85997 -1.87515 2.94201 -6.32179 12.5434C-8.3444 16.9289 -9.76441 21.2259 -12.037 25.5609C-21.6557 43.8632 -29.436 58.0942 -55.5197 75.8295C-80.6601 92.9244 -118.256 107.658 -152.239 109.785C-155.276 109.951 -158.148 110.057 -160.898 110.051C-197.93 110.167 -208.216 100.027 -232.468 106.038C-235.736 106.863 -238.976 107.863 -242.175 109.033C-254.789 113.579 -265.822 120.21 -280.09 129.869C-302.08 144.669 -318.501 159.862 -332.502 171.472C-338.401 176.396 -344.521 181.015 -350.836 185.309C-372.711 200.152 -405.71 217.457 -453.093 230.291" stroke="#016CBA" stroke-opacity="0.5" stroke-miterlimit="10"/>
<path d="M415.96 -43.9044C376.269 -28.1389 326.775 -12.2222 274.608 -12.4841C237.622 -12.651 208.856 -20.9864 184.913 -25.1255C177.635 -26.3854 170.567 -28.0818 163.445 -29.3612C122.364 -36.7449 94.8473 -43.0611 77.1295 -47.3036C59.2683 -51.588 50.507 -53.5323 33.5295 -41.6332C23.5296 -34.4944 14.5634 -25.8366 6.98178 -15.9984C-2.3223 -3.94986 -4.49172 2.33475 -8.16838 11.8129C-9.87339 16.2239 -11.0523 20.5078 -13.3191 24.9077C-22.4532 42.8349 -32.1892 56.4423 -58.5758 72.5575C-84.468 88.349 -122.09 101.339 -155.418 103.346C-158.418 103.503 -161.271 103.606 -163.995 103.661C-201.923 103.954 -212.072 94.7532 -235.109 100.413C-238.362 101.216 -241.587 102.199 -244.77 103.359C-257.563 107.969 -268.586 114.452 -282.468 123.842C-303.501 138.055 -319.627 152.961 -334.434 165.198C-339.782 169.624 -345.777 174.259 -352.611 178.947C-374.231 193.821 -406.906 211.671 -453.422 225.689" stroke="#016CBA" stroke-opacity="0.5" stroke-miterlimit="10"/>
<path d="M417.167 -40.3933C379.55 -24.6581 329.444 -6.92974 274.792 -6.73786C236.516 -6.60203 206.763 -15.2649 183.16 -19.8228C175.716 -21.2625 168.528 -23.1453 161.33 -24.6655C120.221 -33.3374 92.3447 -41.6626 73.7657 -47.1549C55.3666 -52.6474 45.5099 -55.114 28.9452 -43.6002C19.0057 -36.497 10.2594 -27.6707 3.15747 -17.5765C-5.6178 -5.1184 -7.05531 1.6286 -10.0188 10.9848C-11.4066 15.4207 -12.3596 19.7061 -14.5449 24.1336C-23.1981 41.6702 -34.8632 54.7109 -61.5486 69.1767C-88.234 83.6425 -125.842 94.9209 -158.508 96.8035C-161.481 96.9541 -164.315 97.0539 -167.019 97.1059C-205.852 97.5789 -215.865 89.3106 -237.727 94.6223C-240.947 95.4094 -244.142 96.3742 -247.295 97.5126C-260.312 102.125 -271.315 108.535 -284.718 117.686C-304.803 131.307 -320.625 145.935 -336.239 158.788C-341.567 163.183 -347.513 167.788 -354.25 172.485C-375.615 187.389 -407.969 205.772 -453.627 220.985" stroke="#016CBA" stroke-opacity="0.5" stroke-miterlimit="10"/>
<path d="M418.347 -36.935C382.733 -21.2011 332.056 -1.72179 274.923 -1.06598C235.295 -0.576063 204.633 -9.63941 181.378 -14.582C173.758 -16.2062 166.453 -18.2661 159.16 -20.0199C118.042 -29.9915 89.8074 -40.2888 70.3662 -47.0794C51.4218 -53.6673 40.4369 -56.7519 24.3569 -45.6394C13.6801 -38.2595 4.92058 -27.9067 -0.663336 -19.2325C-8.9241 -6.38126 -9.70488 0.870718 -11.8778 10.0757C-12.9313 14.5296 -13.6673 18.8194 -15.7949 23.2928C-23.9796 40.4262 -37.5544 52.8551 -64.5406 65.729C-91.9675 78.8406 -129.604 88.4593 -161.609 90.2148C-164.545 90.3558 -167.36 90.4522 -170.054 90.504C-209.784 91.1449 -219.656 83.801 -240.297 88.7552C-243.495 89.5303 -246.667 90.4767 -249.802 91.5903C-263.001 96.1827 -274.016 102.539 -287.033 111.459C-306.16 124.495 -321.66 138.828 -338.08 152.306C-343.389 156.663 -349.282 161.254 -355.917 165.939C-377.034 180.884 -409.068 199.798 -453.872 216.161" stroke="#016CBA" stroke-opacity="0.5" stroke-miterlimit="10"/>
<path d="M419.52 -33.53C385.931 -17.8204 334.655 3.30863 275.04 4.5326C234.124 5.21207 202.49 -4.0871 179.559 -9.43485C171.779 -11.2578 164.333 -13.4763 156.998 -15.4823C115.85 -26.6875 87.2348 -39.0159 66.9519 -47.0308C47.447 -54.7412 35.4445 -58.4233 19.707 -47.6773C9.39672 -40.6053 0.772354 -29.9401 -4.53812 -20.8922C-12.2854 -7.6498 -12.3181 0.0606295 -13.7849 9.15464C-14.5305 13.6357 -15.0366 17.9064 -17.1151 22.4287C-24.8193 39.204 -40.341 50.9782 -67.5959 62.3413C-95.8102 74.096 -133.422 82.0709 -164.77 83.6879C-167.679 83.8291 -170.472 83.9209 -173.148 83.9634C-213.787 84.8033 -223.525 78.361 -242.964 82.9623C-246.136 83.7196 -249.284 84.6465 -252.396 85.7389C-265.79 90.3346 -276.82 96.6299 -289.409 105.294C-307.571 117.733 -322.781 131.833 -340.024 145.904C-345.31 150.239 -351.148 154.788 -357.697 159.476C-378.557 174.46 -410.273 193.9 -454.223 211.453" stroke="#016CBA" stroke-opacity="0.5" stroke-miterlimit="10"/>
<path d="M420.673 -30.1836C389.112 -14.5231 337.216 8.39727 275.136 10.0627C232.89 11.0688 200.311 1.37546 177.726 -4.32974C169.79 -6.33378 162.225 -8.73712 154.806 -10.9787C113.634 -23.4355 84.6067 -37.7381 63.5324 -47.0456C43.4499 -55.8765 30.3887 -60.1737 15.1108 -49.8178C5.1566 -43.0584 -3.33954 -32.0703 -8.35571 -22.6396C-15.6077 -9.00146 -14.8896 -0.818264 -15.627 8.14624C-16.0109 12.6434 -16.3455 16.9258 -18.3599 21.4821C-25.6607 37.892 -42.8959 49.8797 -70.6302 58.8622C-99.7886 68.3052 -137.212 75.6035 -167.91 77.0918C-170.789 77.2251 -173.56 77.3122 -176.222 77.3532C-217.765 78.4461 -227.369 72.8342 -245.607 77.0809C-248.755 77.8285 -251.881 78.7396 -254.973 79.8107C-268.56 84.4185 -279.633 90.6454 -291.757 99.0211C-308.914 110.905 -323.85 124.788 -341.902 139.428C-347.167 143.734 -352.954 148.26 -359.399 152.945C-380.011 167.97 -411.41 187.935 -454.506 206.649" stroke="#016CBA" stroke-opacity="0.5" stroke-miterlimit="10"/>
<path d="M421.851 -26.8883C392.303 -11.2862 339.797 13.4332 275.251 15.5316C231.676 16.8635 198.208 6.76599 175.914 0.675446C167.792 -1.51679 160.115 -4.07909 152.628 -6.59961C111.409 -20.3258 82.0464 -36.5685 60.1205 -47.1504C39.4321 -57.0685 25.3101 -61.92 10.436 -51.9511C0.846683 -45.507 -7.52378 -34.2053 -12.255 -24.3899C-19.017 -10.3747 -17.5235 -1.73082 -17.5858 7.1147C-17.6254 11.6341 -17.7735 15.9132 -19.7279 20.5239C-26.521 36.5319 -45.8249 46.9991 -73.6569 55.3495C-103.353 64.2866 -140.98 69.1103 -171.02 70.4643C-173.83 70.5689 -176.639 70.6735 -179.267 70.711C-221.707 71.9691 -231.197 67.2642 -248.233 71.1632C-251.356 71.8924 -254.458 72.7839 -257.526 73.8343C-271.307 78.4456 -282.352 84.5961 -294.078 92.7464C-310.33 104.02 -324.945 117.566 -343.783 132.869C-349.036 137.149 -354.79 141.614 -361.147 146.348C-381.515 161.358 -412.596 181.892 -454.806 201.748" stroke="#016CBA" stroke-opacity="0.5" stroke-miterlimit="10"/>
<path d="M422.939 -23.6037C395.419 -8.03281 342.302 18.4427 275.275 20.9889C230.338 22.6588 195.995 12.1053 174.041 5.67546C165.792 3.26453 157.944 0.574372 150.403 -2.17338C109.117 -17.0293 79.3957 -35.3842 56.7222 -47.246C35.4599 -58.3152 20.3479 -63.7436 5.83264 -54.1163C-3.39158 -47.9869 -11.654 -36.366 -16.0944 -26.1789C-22.3628 -11.7337 -20.091 -2.68886 -19.474 6.05469C-19.1416 10.5948 -19.1226 14.8686 -21.0106 19.522C-27.3556 35.1522 -48.5754 44.9117 -76.6515 51.8285C-107.084 59.3658 -144.728 62.6252 -174.105 63.8311C-176.913 63.9381 -179.66 64.0227 -182.269 64.1308C-225.615 65.5564 -234.974 61.7189 -250.818 65.2634C-253.936 65.9987 -257.033 66.8962 -260.095 67.9522C-272.886 72.1728 -285.147 78.4453 -296.389 86.5197C-311.683 97.2095 -326 110.475 -345.642 126.403C-350.876 130.645 -356.564 135.11 -362.806 139.809C-392.033 161.611 -422.922 180.734 -455.054 196.917" stroke="#016CBA" stroke-opacity="0.5" stroke-miterlimit="10"/>
<path d="M424.064 -20.3546C398.558 -4.83234 344.823 23.4142 275.331 26.3931C229.1 28.3743 193.836 17.4387 172.142 10.6513C75.8401 -19.5296 33.1262 -77.2697 1.1637 -56.2922C-7.69522 -50.477 -15.8498 -38.5374 -19.9893 -27.9744C-28.8337 -5.42859 -17.0503 4.81785 -22.3596 18.5138C-35.3736 52.0993 -131.383 55.5612 -185.341 57.5111C-237.951 59.4086 -241.062 54.8931 -262.623 61.9534C-300.264 74.2567 -315.889 96.1788 -364.509 133.225C-393.43 155.201 -423.827 174.874 -455.386 192.039" stroke="#016CBA" stroke-opacity="0.5" stroke-miterlimit="10"/>
<path d="M424.896 -18.0736C398.803 -1.76351 346.62 25.1787 280.151 27.9648C234.261 29.8502 200.182 18.1982 176.959 11.1855C84.2047 -16.7587 44.115 -69.381 10.7865 -51.0157C-2.23577 -43.8437 -14.9174 -34.4396 -22.3356 -24.4772C-36.9086 -4.89249 -27.3198 4.24294 -35.0481 18.4496C-51.9629 49.5656 -141.061 54.6644 -192.311 57.0621C-242.248 59.3463 -245.179 55.8456 -267.53 65.0555C-304.67 80.3582 -319.839 100.275 -365.561 135.498C-394.089 157.468 -424.284 176.862 -455.746 193.424" stroke="#016CBA" stroke-opacity="0.5" stroke-miterlimit="10"/>
<path d="M425.749 -15.6952C382.317 11.8466 333.652 27.5169 284.993 29.6281C239.447 31.4258 206.601 19.0205 181.796 11.8074C92.6627 -14.0748 54.5386 -62.326 20.431 -45.6331C3.1267 -37.1566 -13.4756 -30.4896 -24.6617 -20.8887C-43.8613 -4.4478 -37.2871 3.48146 -47.7295 18.4551C-67.6847 47.0409 -150.733 53.8302 -199.28 56.683C-246.463 59.3292 -249.243 56.7638 -272.428 68.2385C-309.015 86.3341 -323.748 104.539 -366.591 137.861C-394.718 159.814 -424.702 178.927 -456.05 194.885" stroke="#016CBA" stroke-opacity="0.5" stroke-miterlimit="10"/>
<path d="M427.01 -11.4658C384.952 15.7072 337.607 31.1608 290.258 33.1706C245.074 34.8868 213.465 21.7545 187.099 14.3604C101.752 -9.56393 66.756 -47.2043 30.6231 -38.1978C8.01921 -32.5622 -11.1491 -24.3494 -26.4652 -15.2641C-49.61 -1.54504 -46.4824 4.64875 -59.9061 20.4596C-82.1287 46.634 -159.868 55.1083 -205.695 58.3423C-250.156 61.4821 -252.728 59.6596 -276.755 73.4807C-312.803 94.2155 -327.085 110.848 -367.065 142.276C-394.792 164.221 -424.574 183.057 -455.809 198.404" stroke="#016CBA" stroke-opacity="0.5" stroke-miterlimit="10"/>
<path d="M428.756 -5.02777C388.075 21.7645 342.058 37.0022 296.035 38.9206C251.219 40.572 220.873 26.7394 192.951 19.1976C111.459 -2.81326 77.8442 -36.1025 41.4354 -28.3404C14.388 -22.568 -10.1313 -19.9717 -27.6223 -7.21609C-51.6906 10.3354 -52.5278 11.2426 -71.4415 24.8702C-91.3597 52.4139 -168.35 58.785 -211.453 62.4532C-253.169 66.0374 -255.543 64.9556 -280.406 81.2049C-315.925 104.422 -329.724 119.648 -366.851 149.136C-394.182 171.063 -423.764 189.619 -454.879 204.352" stroke="#016CBA" stroke-opacity="0.5" stroke-miterlimit="10"/>
<path d="M430.537 1.56084C391.236 27.9779 346.552 43.025 301.848 44.8953C257.403 46.4998 228.324 31.9396 198.841 24.2638C121.251 4.05434 88.9352 -25.2771 52.3451 -18.2788C20.8044 -12.2357 -6.42509 -11.091 -28.7339 1.07683C-57.5002 16.7641 -60.6116 15.9385 -82.9254 29.5354C-104.573 55.4879 -176.775 62.6299 -217.102 66.7863C-256.074 70.8137 -258.28 70.3898 -283.95 89.147C-319.023 114.744 -332.253 128.681 -366.539 156.216C-393.474 178.125 -422.861 196.402 -453.851 210.518" stroke="#016CBA" stroke-opacity="0.5" stroke-miterlimit="10"/>
<path d="M432.345 8.27911C394.429 34.2951 351.085 49.1328 307.712 50.9435C263.637 52.4933 235.842 37.2004 204.785 29.4077C131.105 10.9196 100.034 -14.6622 63.1945 -8.10238C27.2772 -1.70693 -1.78841 3.39061 -29.7886 9.44517C-64.3641 16.9189 -68.6355 20.7101 -94.3457 34.287C-117.751 58.7178 -185.159 66.6162 -222.799 71.2541C-259.026 75.723 -261.078 75.9049 -287.543 97.2185C-322.118 125.068 -334.806 137.868 -366.233 163.415C-392.775 185.302 -421.971 203.302 -452.828 216.804" stroke="#016CBA" stroke-opacity="0.5" stroke-miterlimit="10"/>
<path d="M434.172 15.0831C404.351 36.1635 361.725 55.3378 313.57 57.0943C269.86 58.6847 243.36 42.5451 210.734 34.6545C141.005 17.7943 111.118 -4.16033 74.1061 2.14839C33.7539 9.03331 1.31834 13.162 -30.8428 17.9248C-69.3623 23.6184 -78.6973 21.0882 -105.758 39.1618C-133.797 57.8866 -193.504 70.7411 -228.42 75.8168C-261.906 80.7168 -263.828 81.4846 -291.066 105.371C-325.284 135.438 -337.291 147.162 -365.944 170.724C-383.756 185.371 -411.001 205.991 -451.821 223.201" stroke="#016CBA" stroke-opacity="0.5" stroke-miterlimit="10"/>
<path d="M436.027 22.0108C405.582 43.8679 364.558 61.745 319.461 63.3555C276.125 64.9003 250.913 47.9723 216.709 40.0174C150.959 24.7141 122.32 6.26471 85.0316 12.5103C40.266 20.0012 4.38732 23.1277 -31.8583 26.5206C-74.4071 30.5002 -86.4265 25.9837 -117.124 44.1652C-146.377 61.5229 -201.819 74.9255 -234.013 80.5113C-264.778 85.8466 -266.652 87.0995 -294.562 113.657C-328.441 145.88 -339.719 156.603 -365.579 178.138C-383.094 192.727 -409.899 213.179 -450.736 229.711" stroke="#016CBA" stroke-opacity="0.5" stroke-miterlimit="10"/>
<path d="M437.899 29.0185C406.815 51.7037 367.408 68.2322 325.372 69.7036C282.408 71.203 258.501 53.4723 222.705 45.4696C160.944 31.6583 133.515 16.6846 95.9817 22.9494C46.7853 31.1583 7.44032 33.222 -32.8499 35.2085C-79.4915 37.5136 -94.0848 31.1802 -128.458 49.2733C-158.957 65.3252 -210.093 79.2563 -239.568 85.304C-267.565 91.036 -269.449 92.8042 -298.023 122.035C-331.624 156.394 -342.107 166.158 -365.189 185.644C-382.413 200.186 -408.752 220.499 -449.627 236.306" stroke="#016CBA" stroke-opacity="0.5" stroke-miterlimit="10"/>
<path d="M439.795 36.1328C408.118 59.5634 370.271 74.8205 331.303 76.1477C288.71 77.5932 266.119 59.0283 228.723 51.0197C170.973 38.6406 144.288 22.7748 106.94 33.4798C53.9905 48.6532 10.4911 43.429 -33.8168 43.996C-84.5802 44.6535 -105.654 28.8336 -139.759 54.4938C-168.242 75.9589 -218.313 83.6348 -245.101 90.2088C-270.342 96.3668 -272.253 98.5902 -301.467 130.51C-334.827 166.978 -344.442 175.841 -364.773 193.251C-381.695 207.752 -407.592 227.905 -448.49 243.011" stroke="#016CBA" stroke-opacity="0.5" stroke-miterlimit="10"/>
<path d="M441.743 43.4792C409.447 67.701 373.192 81.6208 337.29 82.8771C295.077 84.2664 273.812 64.8291 234.809 56.8577C181.041 45.8724 155.704 34.073 117.973 44.2889C60.5332 59.8237 13.5823 53.9482 -34.7153 53.0842C-89.6303 52.1139 -112.259 35.3457 -150.982 60.0308C-181.695 79.6173 -226.491 88.4078 -250.539 95.4207C-273.041 101.98 -275.049 104.675 -304.818 139.293C-337.987 177.857 -346.69 185.849 -364.284 201.161C-380.894 215.624 -406.353 235.6 -447.281 250.01" stroke="#016CBA" stroke-opacity="0.5" stroke-miterlimit="10"/>
<path d="M443.792 51.2914C410.884 76.2992 376.23 88.9171 343.364 89.9754C301.525 91.3146 281.605 70.9662 240.982 63.0812C191.284 53.4288 167.214 45.7491 129.085 55.4849C67.1204 71.3081 16.7559 64.88 -35.499 62.585C-94.6081 59.9883 -118.847 42.8295 -162.074 66.0032C-194.943 83.6244 -234.515 93.5528 -255.866 101.064C-275.614 108.008 -277.749 111.175 -308.061 148.498C-341.065 189.139 -348.833 196.308 -363.672 209.487C-379.963 223.938 -405.043 243.73 -445.947 257.426" stroke="#016CBA" stroke-opacity="0.5" stroke-miterlimit="10"/>
<path d="M445.872 59.2414C412.344 85.0375 379.288 96.3375 349.48 97.2598C308.013 98.5402 289.451 77.2207 247.199 69.4924C201.531 61.1341 178.783 57.5717 140.242 66.8519C73.7676 82.8614 19.9538 75.992 -36.2369 72.266C-99.5851 68.0776 -125.492 50.9322 -173.11 72.1722C-208.056 87.7592 -242.497 98.8792 -261.129 106.904C-278.122 114.209 -280.431 117.846 -311.245 157.891C-344.138 200.616 -350.823 206.99 -363.01 218.002C-378.959 232.46 -403.586 252.022 -444.562 265.032" stroke="#016CBA" stroke-opacity="0.5" stroke-miterlimit="10"/>
<path d="M448.108 67.8998C413.959 94.4734 382.517 104.405 355.753 105.243C314.667 106.383 297.486 84.1 253.583 76.6188C211.956 69.5217 190.521 70.0899 151.558 78.9326C80.5927 95.0384 23.3175 87.8476 -36.7505 82.6757C-104.259 76.8841 -131.334 63.7756 -183.9 79.1002C-221.355 90.0284 -250.224 104.962 -266.156 113.503C-280.424 121.158 -282.903 125.281 -314.2 168.02C-346.992 212.832 -352.611 218.382 -362.115 227.234C-377.682 241.746 -401.948 261.047 -442.94 273.364" stroke="#016CBA" stroke-opacity="0.5" stroke-miterlimit="10"/>
<path d="M450.325 76.471C415.564 103.827 385.715 112.455 361.996 113.147C321.294 114.235 305.525 90.7809 259.943 83.6579C222.353 77.7841 202.239 82.4856 162.847 90.903C87.3835 107.029 26.6397 99.5953 -37.3674 93.0246C-109.115 85.6465 -138.66 71.5686 -194.784 85.9796C-233.761 96.0074 -258.079 110.94 -271.266 120.032C-282.825 128.028 -285.504 132.629 -317.241 178.08C-349.983 224.968 -354.457 229.746 -361.323 236.413C-376.42 251.066 -400.409 269.998 -441.426 281.625" stroke="#016CBA" stroke-opacity="0.5" stroke-miterlimit="10"/>
<path d="M452.543 85.053C417.187 113.176 388.863 120.535 368.245 121.047C327.952 122.071 313.587 97.3014 266.299 90.6936C232.734 86.0016 213.953 94.8572 174.114 102.856C94.1777 118.905 29.937 111.298 -37.9474 103.339C-113.928 94.3883 -146.018 79.3359 -205.623 92.8377C-246.26 102.048 -265.933 116.875 -276.35 126.549C-285.239 134.805 -288.066 139.946 -320.26 188.121C-352.96 237.093 -356.239 241.11 -360.495 245.556C-374.881 260.593 -398.829 278.931 -439.87 289.87" stroke="#016CBA" stroke-opacity="0.5" stroke-miterlimit="10"/>
</svg>
